<?xml version="1.0" standalone="no"?>
<svg version="1.0" xmlns="http://www.w3.org/2000/svg"
 width="200.000000pt" height="200.000000pt" viewBox="0 0 200.000000 200.000000"
 preserveAspectRatio="xMidYMid meet">
<g transform="translate(0.000000,200.000000) scale(0.100000,-0.100000)"
fill="#ffffff" stroke="none">
<path d="M667 1903 c-4 -3 -7 -78 -7 -165 l0 -158 -99 0 c-130 0 -131 -1 -131
-131 l0 -99 -152 0 c-84 0 -159 -4 -166 -9 -8 -5 -12 -21 -10 -37 l3 -29 163
-3 162 -2 0 -110 0 -110 -142 0 c-179 0 -190 -3 -186 -44 3 -28 7 -32 48 -38
25 -3 98 -7 163 -7 l117 -1 0 -110 0 -110 -162 -2 c-162 -3 -163 -3 -166 -26
-7 -47 9 -52 174 -52 l154 0 0 -99 c0 -130 1 -131 130 -131 l100 0 2 -162 3
-163 38 -3 37 -3 0 165 0 166 110 0 110 0 2 -162 3 -163 40 0 40 0 3 163 2
162 110 0 110 0 2 -162 3 -163 35 0 35 0 3 163 2 162 100 0 c129 0 130 1 130
131 l0 99 153 0 c165 0 177 3 177 52 l0 28 -165 0 -165 0 0 110 0 110 139 0
c169 0 194 7 189 52 l-3 33 -162 3 -163 2 0 110 0 110 163 2 162 3 0 35 0 35
-162 3 -163 2 0 100 c0 129 -1 130 -130 130 l-100 0 -2 163 -3 162 -35 0 -35
0 -3 -162 -2 -163 -110 0 -110 0 -2 163 -3 162 -40 0 -40 0 -3 -162 -2 -163
-110 0 -110 0 0 165 0 165 -33 0 c-19 0 -37 -3 -40 -7z m823 -898 l0 -485
-485 0 -485 0 0 485 0 485 485 0 485 0 0 -485z"/>
<path d="M740 1370 c0 -19 7 -20 265 -20 258 0 265 1 265 20 0 19 -7 20 -265
20 -258 0 -265 -1 -265 -20z"/>
<path d="M673 1304 c-3 -8 -1 -20 4 -25 5 -5 139 -8 334 -7 316 3 324 3 324
23 0 20 -8 20 -328 23 -291 2 -328 1 -334 -14z"/>
<path d="M601 1236 c-8 -9 -11 -97 -9 -302 l3 -289 410 0 410 0 3 289 c2 205
-1 293 -9 302 -17 21 -791 21 -808 0z m769 -53 c-1 -16 -63 -67 -248 -206 -20
-15 -44 -33 -52 -40 -54 -44 -63 -47 -88 -31 -13 8 -31 21 -40 29 -9 8 -64 50
-122 95 -58 44 -118 91 -135 105 -16 14 -33 25 -37 25 -5 0 -8 9 -8 20 0 20 7
20 365 20 341 0 365 -1 365 -17z m-620 -163 c3 -3 26 -21 52 -40 26 -19 48
-37 48 -40 0 -3 -47 -52 -105 -110 l-105 -105 0 189 0 188 53 -38 c28 -21 54
-41 57 -44z m620 -107 l0 -188 -105 105 c-58 58 -105 107 -105 110 0 3 22 21
48 40 25 19 53 41 62 47 26 21 95 72 98 73 1 0 2 -84 2 -187z m-400 -62 c14
-12 29 -21 34 -21 5 0 33 18 61 39 l52 39 109 -109 109 -109 -330 0 -330 0
109 109 110 110 25 -19 c14 -11 37 -28 51 -39z"/>
</g>
</svg>
